<svg width="153" height="109" viewBox="0 0 153 109" fill="none" xmlns="http://www.w3.org/2000/svg">
<path d="M94.6688 89.9016C95.0615 91.9467 96.7938 93.7061 98.4547 93.7469L98.5074 96.2969V93.7469C98.8695 93.7469 99.3591 93.6671 99.9473 93.0449C101.459 91.4435 102.407 87.6984 102.497 83.2937C100.95 83.5963 99.3625 84.0876 98.2728 84.5517C95.512 85.7315 94.2319 87.6304 94.6688 89.9016Z" fill="#E3BBA0"/>
<path d="M54.5405 93.7472C56.2014 93.7081 57.9354 91.9469 58.3281 89.9018C58.765 87.6306 57.4849 85.7317 54.7258 84.5536C53.6361 84.0895 52.0483 83.5983 50.5013 83.2957C50.5897 87.7003 51.54 91.4471 53.0513 93.0468C53.6378 93.669 54.1274 93.7489 54.4895 93.7489V96.2989L54.5405 93.7472Z" fill="#E3BBA0"/>
<path d="M75.8278 30.1282C69.0006 30.1282 65.2521 32.294 64.9801 33.1168C65.2538 33.8223 69.0023 35.9863 75.8278 35.9863C82.6532 35.9863 86.4017 33.8223 86.6737 32.9995C86.4034 32.2923 82.6549 30.1282 75.8278 30.1282Z" fill="#E3BBA0"/>
<path d="M96.8073 21.4412C96.8073 21.4412 93.1336 18.4832 91.4303 13.8354C88.8259 18.711 81.0688 21.3171 76.4992 21.3171C71.9296 21.3171 64.1726 18.7093 61.5682 13.8354C59.8648 18.4832 56.1911 21.4412 56.1911 21.4412C42.8309 15.7173 40.7263 31.6786 41.7361 36.0714C44.6057 48.5476 52.4817 42.4242 56.0313 44.3418C59.7611 46.358 56.3849 50.0623 62.1955 51.7079C67.457 53.1971 74.9335 60.2452 76.4992 64.6805C78.0649 60.2452 85.5398 53.1971 90.803 51.7079C96.6135 50.0623 93.2373 46.3597 96.9671 44.3418C100.515 42.4242 108.391 48.5476 111.261 36.0714C112.272 31.6803 110.169 15.719 96.8073 21.4412ZM75.8277 49.5489C67.9058 49.5489 59.8869 46.7898 59.8869 41.5198C59.8869 40.1105 61.0276 38.9698 62.4369 38.9698C63.8462 38.9698 64.9869 40.1105 64.9869 41.5198C65.2521 42.2831 69.0005 44.4489 75.8277 44.4489C82.6549 44.4489 86.4017 42.2848 86.6737 41.4603C86.6737 40.0527 87.811 38.9409 89.2203 38.9409C90.6296 38.9409 91.7668 40.1105 91.7668 41.5198C91.7668 46.7898 83.7497 49.5489 75.8277 49.5489ZM75.8277 41.0846C67.9058 41.0846 59.8869 38.3272 59.8869 33.0556C59.8869 27.7839 67.9058 25.0265 75.8277 25.0265C83.748 25.0265 91.7668 27.7856 91.7668 33.0556C91.7668 38.3255 83.7497 41.0846 75.8277 41.0846Z" fill="#E3BBA0"/>
<path d="M42.5284 49.2156C39.3987 47.4 36.5682 43.932 35.1096 37.5945C34.1304 33.3377 34.8002 24.7697 39.3528 19.0509C40.7264 17.3272 42.3805 15.9842 44.2216 15.0356C22.5195 -11.2123 -5.0493 0.742022 0.795279 27.0443C7.05465 55.22 20.6733 52.0903 23.2573 65.3961C24.1668 70.0779 26.9463 73.857 30.5468 76.4818L47.8596 77.9013C47.9208 77.8979 47.9837 77.8962 48.0432 77.8979C50.9417 77.937 54.5779 78.9451 56.7284 79.8631C62.6716 82.4012 64.0401 87.2104 63.338 90.8637C62.4829 95.316 58.7548 98.7466 54.6646 98.8452C54.6442 98.8452 54.5116 98.8469 54.4895 98.8469C52.5431 98.8469 50.7649 98.0513 49.3437 96.5468C46.0729 93.0822 45.4473 86.8211 45.4048 82.9469C45.4048 82.9469 45.3997 82.9469 45.3963 82.9469C42.831 82.8857 39.1964 82.7973 35.5924 82.4505C37.9095 95.6339 36.6464 104.03 43.3138 107.658C54.1053 113.528 81.3035 95.4945 72.8019 81.6345C62.6019 65.0119 30.829 69.522 42.5284 49.2156Z" fill="#E3BBA0"/>
<path d="M108.777 15.0355C110.62 15.9858 112.274 17.3304 113.648 19.0542C118.2 24.773 118.868 33.3393 117.887 37.5961C116.431 43.9319 113.6 47.3999 110.47 49.2138C122.171 69.5202 90.3952 65.0101 80.1986 81.6344C71.6969 95.4944 98.8934 113.528 109.687 107.658C116.354 104.032 115.089 95.6338 117.408 82.4504C113.801 82.7972 110.163 82.8856 107.594 82.9468C107.551 86.8295 106.929 93.0787 103.659 96.545C102.237 98.0495 100.457 98.8468 98.5109 98.8468C98.4905 98.8468 98.3562 98.8451 98.3341 98.8451C94.2473 98.7465 90.5176 95.3159 89.6625 90.8636C88.9604 87.2086 90.3289 82.3994 96.272 79.863C98.4242 78.9433 102.059 77.9369 104.957 77.8978C105 77.8978 105.034 77.9182 105.076 77.9216C105.715 77.8944 106.523 77.874 107.472 77.8519C111.359 77.7584 117.814 77.5986 122.369 76.5497C126.012 73.9215 128.827 70.1169 129.743 65.396C132.327 52.0902 145.942 55.2216 152.205 27.0459C158.048 0.74192 130.479 -11.2124 108.777 15.0355Z" fill="#E3BBA0"/>
</svg>
