<svg width="88" height="95" viewBox="0 0 88 95" fill="none" xmlns="http://www.w3.org/2000/svg">
<path d="M1.67806 46.8777C1.60061 47.1229 1.51456 47.3596 1.44571 47.6134C1.29942 48.1211 1.16173 48.659 1.03265 49.2226C0.851938 50.0444 0.684132 50.8921 0.559354 51.7784C0.503418 52.1528 0.464693 52.5744 0.413061 52.966C0.318401 53.7835 0.236649 54.6139 0.176411 55.4659C0.150595 55.8144 0.124778 56.1629 0.103265 56.5286C0.0387241 57.7549 0 58.9984 0 60.2634C0 60.2806 0 60.2978 0 60.315C0 61.7823 0.0774486 63.1118 0.1592 64.4241C0.796002 72.6724 3.40775 80.3614 9.14327 81.5705C9.31968 81.6049 9.5004 81.6221 9.68111 81.6479C10.0038 81.6909 10.3222 81.7383 10.6664 81.7426C10.6664 81.7555 10.6664 81.7684 10.6621 81.7813C10.6923 81.7813 10.7224 81.7942 10.7525 81.7942H66.6878C66.7179 81.7942 66.748 81.7813 66.7782 81.7813C66.7782 81.7684 66.7739 81.7512 66.7739 81.7383C73.4474 81.6651 77.4403 73.6578 77.4446 60.2591C77.4446 58.5681 77.3671 57.0062 77.2553 55.5175C77.1649 54.3988 77.0229 53.3618 76.868 52.3507C76.825 52.0796 76.7992 51.7827 76.7562 51.5246C75.4266 43.9432 72.2254 39.4383 67.643 38.8746C67.6559 38.8445 62.9918 38.3927 56.1332 40.3978C51.4734 41.7617 46.0907 42.9407 38.7201 42.9407C31.341 42.9407 26.0185 41.5294 21.3071 40.3978C13.9795 38.6379 10.675 38.7068 10.6793 38.7326C10.4126 38.7326 10.1458 38.7541 9.87904 38.7799C9.48749 38.8187 9.11315 38.8746 8.75173 38.9607C6.05392 39.5888 3.35182 41.7101 1.67806 46.8777Z" fill="#FEC77D"/>
<path d="M67.3374 86.0634C67.1223 86.072 66.9071 86.0978 66.692 86.0978H10.7567C10.5416 86.0978 10.3307 86.0548 10.1156 86.0376C9.52181 89.3378 8.72581 91.7903 8.7129 91.829C8.33856 92.965 8.94955 94.174 10.0769 94.5527C10.3049 94.6258 10.5329 94.6602 10.7567 94.6602C11.656 94.6602 65.7884 94.6602 66.692 94.6602C66.9201 94.6602 67.1438 94.6258 67.3761 94.5527C68.4992 94.174 69.1101 92.965 68.7315 91.829C68.7229 91.7946 67.9312 89.3464 67.3374 86.0634Z" fill="#FEC77D"/>
<path d="M85.4261 13.5363C84.4107 12.5209 82.7197 11.5571 81.046 10.7568C82.7197 9.95649 84.4064 8.99268 85.4261 7.97724C86.3986 7.00482 86.7901 5.97647 86.5922 4.918C86.291 3.23995 84.7506 2.55581 83.4082 1.95343C82.595 1.5877 81.6699 1.17034 81.1234 0.632499C80.6716 0.176411 80.0607 -0.0301191 79.4626 0.00860532C78.9592 0.0430271 3.33891 0 2.15136 0C0.963809 0 0 0.963809 0 2.15136C0 9.00559 2.29335 15.9244 6.8155 22.7054C8.8722 25.7905 9.84462 30.6526 10.3136 34.5723C10.4642 34.5637 10.6191 34.5422 10.7568 34.5422C14.8917 34.5422 18.5232 35.4587 22.3612 36.4311C26.8231 37.5627 31.8831 38.8449 38.7245 38.8449C45.5572 38.8449 50.6258 37.5627 55.0877 36.4311C58.93 35.4544 62.5572 34.5422 66.6921 34.5422C67.8797 34.5422 69.1145 34.7315 70.3537 35.136C71.6876 33.8194 73.4259 32.6877 75.7192 32.2273C83.1801 30.7343 85.7359 25.7518 86.5965 22.912C87.7023 19.2633 87.2075 15.322 85.4261 13.5363Z" fill="#FEC77D"/>
</svg>
