<svg width="114" height="99" viewBox="0 0 114 99" fill="none" xmlns="http://www.w3.org/2000/svg">
<path d="M57.5495 68.2478C55.2314 75.3946 45.5678 87.7517 45.5678 76.2134C45.5678 72.6393 42.9761 72.2216 39.9803 75.3933C37.6686 77.5814 43.9286 85.547 30.3167 85.6811C28.9512 85.5483 28.9511 83.76 27.3209 83.76C25.8224 83.76 25.4158 85.1306 23.6449 84.9965C21.8728 85.1306 21.3269 82.9438 19.2862 82.8084C17.5166 82.8084 16.0194 84.5928 13.9737 84.1777C12.6145 83.8941 13.0224 82.3907 11.7962 81.9742C10.5713 81.706 10.0241 82.8071 9.20959 83.3563C9.34639 83.4917 6.34938 81.706 6.21637 81.5719C4.85087 81.1555 3.35363 81.1555 3.35363 82.3907C1.99445 81.9755 1.72085 81.9755 1.3117 81.9755C-0.867027 88.9869 -0.051271 84.9965 1.72085 93.929C16.1524 100.109 34.2675 97.7713 41.6207 98.7306C64.6304 101.896 63.6791 76.2134 65.4512 71.8218C65.4487 67.4277 58.7731 63.855 57.5495 68.2478ZM21.052 41.196C21.052 39.4102 24.049 38.1737 24.5962 35.0174C25.0016 32.4116 23.6437 28.4288 25.0016 27.4619C30.3167 24.446 36.8503 24.446 41.2052 33.6468C56.1827 61.6592 21.052 60.2822 21.052 41.196ZM108.883 17.3018C99.2113 5.35978 86.9573 0 71.5744 0C59.1797 0 44.7482 7.14041 35.4911 14.2859C26.3671 21.2846 21.052 17.3018 18.8745 23.8968C17.9232 26.6431 19.4205 32.1382 19.2849 33.6481C18.8745 37.6232 12.7475 40.3708 10.9766 44.3536C9.47813 47.0999 15.3354 49.7134 14.5196 53.6962C13.9724 55.8919 7.02706 60.2835 6.0745 62.4805C3.07875 68.6655 0.357874 75.3946 3.49043 76.2147C3.49043 77.5827 4.16938 78.4079 5.39555 79.1028C6.89406 79.5051 7.02833 76.898 8.25323 77.584C10.0228 78.4091 9.61874 79.371 11.3883 79.9228C13.567 80.0557 12.3409 77.8688 16.1511 78.8205C17.9232 79.104 17.5166 80.1898 18.8745 80.6062C20.5111 81.2909 19.6941 79.1027 23.2307 79.7874C25.2739 80.1885 24.049 81.1567 26.3671 81.5732C28.9512 82.1173 28.5445 80.1885 29.7707 79.7874L33.7203 79.371C35.4911 78.8192 36.445 71.8231 42.1578 71.4054C50.8765 70.4525 53.5999 62.8931 58.7744 64.2752C71.5744 67.8327 65.4499 77.584 70.6168 77.584C83.4156 75.3959 100.572 75.797 106.701 64.2752C114.599 49.7134 117.193 27.4631 108.883 17.3018Z" fill="#E3BBA0"/>
</svg>
