<svg width="30" height="80" viewBox="0 0 30 80" fill="none" xmlns="http://www.w3.org/2000/svg">
<path d="M16.8052 70.3308C16.9052 70.2308 17.0052 70.1308 17.1052 70.0308C18.2052 69.6308 23.6052 67.7308 25.5052 66.2308C25.7052 65.8308 27.0052 65.8308 27.0052 67.4308C27.0052 68.2308 27.1052 69.0308 27.3052 69.7308C27.5052 70.4308 27.9052 70.9308 28.4052 71.3308C28.9052 71.7308 29.3052 72.1308 29.2052 72.8308C29.2052 73.4308 28.7052 74.0308 27.8052 74.8308C25.8052 76.4308 23.6052 78.2308 20.1052 78.4308C19.1052 78.2308 18.6052 77.1308 18.4052 76.6308C18.1052 76.1308 17.2052 75.9308 16.6052 76.2308C16.0052 76.5308 15.6052 77.4308 15.3052 78.2308C15.1052 79.0308 12.3052 81.1308 9.60522 78.5308C7.00522 75.9308 8.70522 74.1308 9.30522 74.4308C9.90522 74.7308 12.6052 74.8308 12.8052 73.3308C13.0052 71.7308 12.7052 70.9308 13.4052 70.6308C14.1052 70.3308 15.0052 71.0308 15.5052 71.5308C15.7052 71.9308 16.3052 71.3308 16.8052 70.3308Z" fill="#FEC77D"/>
<path d="M13.1052 59.2306C13.2052 59.1306 13.3052 59.0306 13.4052 59.0306C14.6052 58.8306 20.2052 57.7306 22.3052 56.5306C22.6052 56.1306 23.8052 56.3306 23.6052 58.0306C23.4052 59.7306 23.4052 61.3306 24.4052 62.3306C25.3052 63.3306 25.5052 64.8306 23.3052 66.0306C21.0052 67.2306 18.4052 68.2306 15.0052 67.8306C14.1052 67.4306 13.8052 66.3306 13.6052 65.7306C13.4052 65.2306 12.5052 64.8306 11.9052 65.0306C11.3052 65.2306 10.7052 66.0306 10.3052 66.7306C9.90522 67.4306 6.80522 68.9306 4.60522 66.1306C2.50522 63.2306 4.40522 61.7306 4.90522 62.1306C5.50522 62.4306 8.10522 63.0306 8.50522 61.5306C8.90522 60.0306 8.80522 59.1306 9.50522 58.9306C10.2052 58.7306 11.0052 59.6306 11.4052 60.1306C11.8052 60.7306 12.4052 60.2306 13.1052 59.2306Z" fill="#FEC77D"/>
<path d="M11.0052 47.8306C11.1052 47.7306 11.2052 47.6306 11.4052 47.6306C12.6052 47.6306 18.3052 47.2306 20.5052 46.3306C20.8052 46.0306 22.0052 46.3306 21.6052 48.0306C21.2052 49.7306 21.0052 51.2306 21.8052 52.4306C22.6052 53.6306 22.6052 55.1306 20.2052 55.9306C17.8052 56.8306 15.1052 57.4306 11.7052 56.4306C10.8052 55.9306 10.7052 54.7306 10.6052 54.2306C10.5052 53.7306 9.70522 53.2306 9.00522 53.3306C8.30522 53.4306 7.60521 54.1306 7.10521 54.8306C6.70521 55.5306 3.30521 56.5306 1.60521 53.4306C-0.0947864 50.3306 1.90522 49.1306 2.50522 49.5306C3.00522 49.9306 5.60521 50.8306 6.20521 49.4306C6.80521 48.0306 6.80522 47.1306 7.50522 47.0306C8.30522 46.9306 8.90521 47.9306 9.20521 48.4306C9.60521 49.1306 10.2052 48.7306 11.0052 47.8306Z" fill="#FEC77D"/>
<path d="M10.3052 36.2308C10.4052 36.1308 10.5052 36.1308 10.7052 36.1308C11.9052 36.2308 17.6052 36.5308 19.9052 35.8308C20.3052 35.5308 21.5052 36.0308 20.8052 37.6308C20.2052 39.3308 19.8052 40.8308 20.5052 42.1308C21.1052 43.4308 21.0052 44.9308 18.5052 45.5308C16.0052 46.0308 13.2052 46.3308 10.0052 45.0308C9.20522 44.4308 9.20521 43.2308 9.20521 42.7308C9.20521 42.2308 8.40521 41.6308 7.70521 41.6308C7.00521 41.6308 6.30521 42.2308 5.70521 42.9308C5.40521 43.2308 4.40521 43.5308 3.40521 43.3308C2.30521 43.1308 1.10521 42.5308 0.405213 40.9308C-0.894787 37.7308 1.30521 36.7308 1.80521 37.2308C2.30521 37.7308 4.70521 38.8308 5.50522 37.5308C6.30522 36.2308 6.30522 35.3308 7.00522 35.3308C7.80522 35.3308 8.30521 36.3308 8.60521 36.9308C8.80521 37.3308 9.50521 37.0308 10.3052 36.2308Z" fill="#FEC77D"/>
<path d="M10.9052 24.6307C11.0052 24.5307 11.2052 24.5307 11.3052 24.5307C12.5052 24.7307 18.1052 25.6307 20.5052 25.2307C20.9052 24.9307 22.0052 25.5307 21.2052 27.1307C20.4052 28.7307 20.0052 30.2307 20.5052 31.6307C21.0052 33.0307 20.6052 34.5307 18.0052 34.7307C15.5052 35.0307 12.6052 34.9307 9.60521 33.2307C8.90521 32.5307 9.10521 31.3307 9.10521 30.8307C9.10521 30.3307 8.40521 29.6307 7.80521 29.6307C7.10521 29.6307 6.3052 30.1307 5.7052 30.6307C5.1052 31.1307 1.70521 31.4307 0.605206 28.0307C0.305206 27.2307 0.305206 26.5307 0.305206 26.0307C0.405206 25.5307 0.605205 25.1307 0.905205 24.8307C1.4052 24.3307 2.10521 24.2307 2.30521 24.5307C2.70521 25.0307 5.0052 26.4307 5.9052 25.2307C6.8052 24.0307 7.0052 23.1307 7.7052 23.2307C8.4052 23.3307 8.90521 24.3307 9.10521 25.0307C9.20521 25.5307 9.9052 25.3307 10.9052 24.6307Z" fill="#FEC77D"/>
<path d="M12.6052 13.1308C12.7052 13.0308 12.9052 13.0308 13.0052 13.0308C14.2052 13.3308 19.7052 14.7308 22.1052 14.5308C22.5052 14.3308 23.6052 15.0308 22.6052 16.5308C21.7052 18.0308 20.9052 19.5308 21.3052 20.9308C21.7052 22.3308 21.2052 23.8308 18.6052 23.8308C16.0052 23.8308 13.3052 23.5308 10.4052 21.5308C9.70522 20.7308 10.0052 19.6308 10.1052 19.1308C10.1052 18.6308 9.50522 17.9308 8.90522 17.8308C8.20522 17.7308 7.30521 18.1308 6.70521 18.6308C6.40521 18.8308 5.40522 18.9308 4.30522 18.5308C3.20522 18.1308 2.20522 17.2308 1.90522 15.5308C1.30522 12.1308 3.60522 11.7308 4.00522 12.2308C4.40522 12.7308 6.50522 14.3308 7.50522 13.2308C8.50522 12.1308 8.70522 11.2308 9.50522 11.3308C10.2052 11.4308 10.6052 12.5308 10.7052 13.2308C10.8052 13.9308 11.6052 13.7308 12.6052 13.1308Z" fill="#FEC77D"/>
<path d="M15.2052 1.83074C15.3052 1.73074 15.5052 1.73074 15.6052 1.83074C16.7052 2.23074 22.2052 4.03074 24.5052 4.03074C24.9052 3.83074 25.9052 4.63074 24.9052 6.13074C23.9052 7.63074 23.1052 9.03074 23.3052 10.5307C23.4052 11.9307 22.9052 13.4307 20.3052 13.2307C17.7052 13.0307 15.0052 12.4307 12.3052 10.1307C11.7052 9.33074 12.1052 8.23074 12.3052 7.73074C12.4052 7.23074 11.9052 6.43074 11.2052 6.33074C10.5052 6.13074 9.60522 6.53074 8.90522 6.93074C8.20522 7.33074 4.80522 6.93074 4.40522 3.53074C4.00522 0.130739 6.30522 -0.16926 6.70522 0.43074C7.00522 1.03074 9.10522 2.73074 10.1052 1.73074C11.2052 0.630739 11.4052 -0.16926 12.2052 0.0307396C12.9052 0.23074 13.2052 1.33074 13.3052 2.03074C13.4052 2.43074 14.2052 2.33074 15.2052 1.83074Z" fill="#FEC77D"/>
</svg>
