<svg id="Calque_1" data-name="Calque 1" xmlns="http://www.w3.org/2000/svg" viewBox="0 0 1417.32 1417.32"><defs><style>.cls-1{fill:#1d1d1b;}</style></defs><path class="cls-1" d="M1335.87,403.87c0,106.61-51.63,201.16-131.29,260a322.06,322.06,0,0,1-161.52,61.61c-10.34.1-20.78.55-30.94.64-7.26.18-13.7.18-19.51.18q-8.83-.58-17.65-1.6c-8.81-1-17.38-1.66-24.35-7.84-5.8-5.13-9.49-12.17-12.42-19.23-.58-1.38-1.12-2.77-1.66-4.18-4.9-13.24-8.71-27.31-15.42-39.74a226.85,226.85,0,0,1-27-109.79c.18-16.52-1.27-26.41-14.88-36-36.2-25.49-37.48-35.29-13-72.77,9.35-14.33,18.88-28.58,28.31-42.92,16.79-25.13,20.33-51.08,16.43-82a311.81,311.81,0,0,1-.13-78.18,297.5,297.5,0,0,1,19.26-73.72A324.11,324.11,0,0,1,954,111.11c5.66-9.29,12.77-18.56,22.27-24.4,11.07-6.81,24.07-6,36.52-6,5.63,0,11.26.18,16.79.45,161.06,8.26,291,134.48,305,294.09C1335.33,384.72,1335.87,394.25,1335.87,403.87Z"/><path class="cls-1" d="M1337,813.93c-259.06,10.17-579.48,298-583.87,522.59H1337Z"/><rect class="cls-1" x="80.33" y="80.46" width="502.36" height="1256.39" rx="1.42"/></svg>