<svg width="65" height="114" viewBox="0 0 65 114" fill="none" xmlns="http://www.w3.org/2000/svg">
<path d="M46.8973 50.0368L47.2744 52.559C47.2683 52.3216 47.1978 49.5637 47.2037 49.8011C46.9659 49.7709 45.6694 49.6059 45.9073 49.6361C45.9124 49.3987 45.9832 46.0989 45.978 46.3361C45.7378 46.2743 44.0875 45.85 44.328 45.9118L44.3515 44.9218L43.2201 44.8984C43.2507 45.1363 43.4626 46.7861 43.4322 46.5485C43.668 46.5918 45.4594 46.9218 45.2237 46.8785C45.2437 47.1149 45.503 50.1792 45.483 49.9428C45.483 49.9428 47.1342 50.0526 46.8973 50.0368Z" fill="#FEC77D"/>
<path d="M54.2516 46.3594C54.0152 46.1871 52.6242 45.1733 52.8609 45.3456L54.3459 43.507L53.403 42.9648C53.2422 43.2006 51.5213 45.7227 51.6823 45.487C51.9201 45.6343 53.5939 46.6715 53.3559 46.5239L51.8709 49.9889L51.8001 50.0597C51.9856 50.2996 52.9523 51.5489 52.7666 51.309L51.1637 53.9018C51.3476 53.6605 53.304 51.0914 53.1201 51.3325C52.9617 51.0952 52.1132 49.8221 52.2716 50.0597C52.3979 49.8237 54.3782 46.1232 54.2516 46.3594Z" fill="#FEC77D"/>
<path d="M64.2458 63.3311C64.0087 63.3401 62.123 63.4108 62.3601 63.4019C62.1798 63.1579 60.5769 60.9893 60.7572 61.2333C60.2226 61.2778 58.253 61.4419 58.4944 61.4218L57.5751 60.0547L58.3529 61.5397V61.5868H60.5215C60.6601 61.823 62.098 64.2745 61.9594 64.0383C62.1965 64.0487 63.8227 64.1191 63.5856 64.109L63.9156 65.429L64.9999 65.2169C64.903 64.9738 64.1487 63.0881 64.2458 63.3311Z" fill="#FEC77D"/>
<path d="M57.1037 48.1037C57.3446 48.3058 58.9477 49.6493 58.7068 49.4473C58.4626 49.6453 55.7283 51.8611 55.9725 51.6631C56.2085 51.8259 57.8821 52.9809 57.6461 52.8181L55.5011 54.3974C55.7382 54.2489 58.2604 52.6696 58.0233 52.8181C57.7831 52.633 56.3452 51.5249 56.5854 51.7102C56.8211 51.5471 59.9561 49.3785 59.7204 49.5416C59.4847 49.3059 58.1409 47.9621 58.3768 48.198L60.3568 46.9487L59.579 46.218C59.3376 46.4019 56.8624 48.2876 57.1037 48.1037Z" fill="#FEC77D"/>
<path d="M58.5653 55.1987C58.4771 55.445 57.9112 57.0243 57.9993 56.778L55.9722 57.2023L58.1643 56.9665L58.235 56.8958L58.8715 55.5758C59.1088 55.5794 62.3382 55.6265 62.101 55.623C62.1708 55.3849 62.5715 54.0177 62.5017 54.2558C62.9025 54.2558 63.3032 54.2794 63.6803 54.2794L64.0103 53.4308C63.022 53.3943 61.9678 53.4673 61.7239 53.4779C61.6873 53.7148 61.4519 55.247 61.4882 55.0101C61.2513 55.0254 58.3284 55.214 58.5653 55.1987Z" fill="#FEC77D"/>
<path d="M56.821 67.3855C56.9047 67.1375 57.5647 65.1811 57.4811 65.4291C57.243 65.3595 55.7106 64.9117 55.9489 64.9812V62.7183C55.7099 62.5972 53.8949 61.6779 54.1339 61.7991L54.5346 60.644L53.9453 61.7755V61.8226L53.9689 61.8698L55.5482 62.8833C55.5142 63.1207 55.1607 65.5957 55.1946 65.3584C55.4386 65.4529 56.5938 65.9007 56.3498 65.8062L55.7839 67.0319L56.821 67.3855Z" fill="#FEC77D"/>
<path d="M16.5076 92.1244C16.5076 89.9994 18.7611 82.9739 19.9962 79.9378C18.8118 74.535 16.4959 68.3359 14.2681 63.2256C12.9248 71.7349 10.5909 86.7972 10.0488 91.7001C10.0488 91.7001 7.03163 97.593 5.68805 100.634C4.34447 103.651 2.17588 109.544 2.7416 113.032H6.13591C5.57043 105.961 12.1705 97.098 16.5076 92.1244Z" fill="#FEC77D"/>
<path d="M19.8784 15.917C18.1341 15.0685 16.7669 13.7485 15.8712 12.2163L9.17688 20.4664C10.046 30.4657 22.74 27.9885 32.6778 26.2414C33.6678 26.0764 34.3513 25.9585 34.8935 25.9114H34.9642C34.8935 24.615 34.8228 23.3892 34.7285 22.2578L29.8256 20.7728L19.8784 15.917Z" fill="#FEC77D"/>
<path d="M26.3371 44.698C26.8792 43.3309 27.5628 41.563 28.5526 40.0544C11.7908 46.1682 10.6221 50.0219 10.2139 50.3081C12.5437 54.7339 15.3683 58.3385 19.6189 70.3673C20.4675 69.118 21.6697 67.9158 23.1782 66.8082C23.1547 66.7375 23.1547 66.6668 23.1547 66.5725V66.5489C19.907 62.3991 19.188 55.8326 24.6397 51.7459C24.585 48.1947 25.2801 47.2332 26.3371 44.698Z" fill="#FEC77D"/>
<path d="M18.794 93.2084L18.7469 93.1377C15.3054 97.027 7.80967 106.338 8.49325 113.032H18.3933C18.0633 110.534 18.6055 104.853 20.0198 96.1549V94.222C19.8185 94.0681 19.6249 93.9207 18.794 93.2084Z" fill="#FEC77D"/>
<path d="M52.6899 66.4545C51.9257 67.0367 51.1952 66.9502 50.8042 66.9967C50.427 67.6567 49.767 68.1045 48.9892 68.2695L48.7535 68.3167L48.3999 68.3403C47.9756 68.3403 46.9149 68.3403 43.7563 66.3367C43.0491 68.081 41.6348 69.0474 40.3384 69.7781C34.5473 73.0119 30.2783 73.0138 25.2762 68.8117C23.1076 70.2731 21.4104 71.9939 20.6561 73.9503C20.9536 77.5459 21.7437 87.1009 21.6933 86.4904C22.2595 88.4129 23.7393 86.6568 22.9192 93.7693C22.845 93.667 22.9049 93.5805 22.8245 93.8211L23.0477 93.8881C25.8449 95.7806 49.1327 89.3977 57.2861 92.5719C57.3097 92.5719 57.3097 92.5719 57.3097 92.5719C59.7826 84.5533 58.8473 73.3591 52.6899 66.4545Z" fill="#FEC77D"/>
<path d="M18.0871 0.0300293L3.402 0.218602L5.24058 5.40435C5.24058 5.40435 3.28414 12.9708 2.88342 18.6752C3.02721 18.435 16.5771 1.87427 18.0871 0.0300293Z" fill="#FEC77D"/>
<path d="M8.6111 47.4558L8.96468 48.0686C12.7361 43.3307 24.6869 38.805 31.0984 36.6364V36.6128C31.5578 35.9783 34.847 31.1478 35.1527 30.7199C35.1291 29.8714 35.1056 29.0463 35.082 28.2449C33.432 28.3863 29.9198 29.3763 20.6326 30.1071C6.18323 31.2385 6.79609 19.6648 6.79609 19.6648L14.834 9.76478C14.669 9.22263 14.5747 8.65692 14.5747 8.06763C11.422 12.1427 3.00106 21.5176 3.00106 23.2949C1.84605 25.6756 1.04462 28.1035 0.620331 29.5178C0.620331 29.5413 0.620331 29.5413 0.620331 29.5649C-0.298961 35.4107 0.0310425 44.0614 8.6111 47.4558Z" fill="#FEC77D"/>
<path d="M20.9121 13.7886L30.6944 18.5736L43.4794 22.458C34.6841 35.6654 35.2807 34.7207 35.2529 34.7624C35.2529 34.7624 35.2529 34.7624 35.2529 34.7859C24.0571 49.1865 28.6931 49.2775 26.0835 58.169C26.0835 58.169 25.0699 63.8733 25.8478 64.0619C27.937 64.6151 28.4694 59.0503 30.3735 56.967C31.5757 55.5763 34.6871 57.1085 35.3 58.0278C35.8893 58.9471 41.8293 61.5164 41.8293 61.5164C41.8293 61.5164 47.3215 65.6178 48.5001 65.3821C49.6315 65.1464 47.4394 62.8364 47.2272 62.6007C47.9752 63.0495 50.961 64.613 51.4701 63.85C52.0594 62.9542 46.0251 58.1221 46.0251 58.1221C46.0251 58.1221 45.6715 56.1185 41.8293 52.842C37.9872 49.5891 36.6672 43.8141 36.6672 43.8141C36.3607 39.8305 46.0958 37.3555 54.228 28.5869C62.3602 19.8182 55.0294 15.7403 55.0294 15.7403C52.8875 11.6122 27.4533 1.07292 25.7915 0.753286C17.6819 -0.86844 13.088 9.9851 20.9121 13.7886Z" fill="#FEC77D"/>
<path d="M49.6727 94.0569C39.3882 94.0569 26.7803 97.9073 22.4004 96.1783C22.4004 96.5458 20.1451 109.042 20.7504 112.796C20.774 112.867 20.7976 112.961 20.8447 113.032H49.2249C49.3187 112.794 56.8185 93.7964 56.3435 94.9998C54.3583 94.3933 54.0283 94.0569 49.6727 94.0569Z" fill="#FEC77D"/>
<path d="M23.2491 61.4105C23.3434 60.3734 23.5322 59.1476 23.7677 57.7569L23.7912 57.5919L23.8384 57.4505C24.0505 56.7905 24.3098 55.8476 24.4984 54.9519C22.9783 56.6623 22.7225 59.1913 23.2491 61.4105Z" fill="#FEC77D"/>
<path d="M33.3141 59.2888C33.1962 59.2181 32.4655 58.841 31.9469 58.7703C30.3504 60.9919 30.1335 66.2712 26.1954 66.4546C33.1382 73.1645 41.5669 67.455 41.8001 64.4274C39.5367 62.7673 34.4766 61.1663 33.3141 59.2888Z" fill="#FEC77D"/>
</svg>
