<svg width="63" height="105" viewBox="0 0 63 105" fill="none" xmlns="http://www.w3.org/2000/svg">
<path d="M60.1952 96.9927C64.0787 100.66 53.7226 104.328 50.702 104.328C47.8972 104.113 41.8561 102.818 42.5034 93.3249C44.6609 95.2666 46.8184 96.1297 49.1917 96.1297H49.4075C52.6438 96.1297 55.2328 94.1879 57.1746 92.2461C57.8219 93.9721 58.6849 95.6981 60.1952 96.9927Z" fill="#FEC77D"/>
<path d="M44.2294 0.76709C44.0136 5.29792 40.9931 9.82874 39.4828 11.7705C39.0513 10.2602 38.6198 8.74997 37.9725 7.2397C37.3252 5.72942 36.4622 3.14038 36.8937 0.76709H44.2294Z" fill="#FEC77D"/>
<path d="M51.9966 46.938C53.9384 48.664 56.7432 50.6058 61.0583 51.2531C60.8425 52.5476 60.411 53.6264 59.9795 54.7051C54.8014 69.1606 55.6644 77.1435 56.0959 84.6949V84.9106C55.2329 86.6367 52.2124 90.736 49.1918 90.736C46.6028 90.736 44.2295 87.7154 42.7192 84.9106C42.935 83.1846 43.5822 81.0271 44.661 78.2223C46.1713 74.3387 44.4452 65.277 42.7192 58.3729C42.2877 57.0784 42.072 55.5681 41.8562 54.2736C42.2877 54.2736 48.9761 52.5476 51.9966 46.938Z" fill="#FEC77D"/>
<path d="M63.0001 35.5034C63.0001 39.1712 62.7843 43.0548 62.1371 46.7226C62.1371 46.7226 62.1371 46.7226 61.9213 46.7226C55.4487 45.8596 53.2912 41.3288 53.2912 41.113C52.8597 40.25 51.9966 39.6027 50.9179 39.8185C49.8391 40.0342 49.1918 40.6815 48.9761 41.7603C48.3288 47.5856 42.072 49.5274 40.9932 49.7432C39.9144 42.1918 39.9144 34.2089 40.7775 26.6575C40.9932 25.7945 40.9932 24.9315 41.209 24.0685C41.6405 21.9109 41.4247 19.3219 40.7775 16.5171C41.209 16.5171 41.6405 16.3013 41.8562 15.8698C42.072 15.6541 48.5446 8.74997 48.7603 0.76709H58.685C58.685 0.76709 58.0377 11.339 60.1953 16.5171C61.274 18.8904 62.3528 24.2842 62.7843 30.7568C56.7432 28.1678 55.4487 17.5959 55.4487 17.3801C55.2329 16.0856 54.1542 15.2226 52.8597 15.4383C51.5651 15.6541 50.7021 16.7329 50.9179 17.8116C50.9179 18.4589 52.6439 32.2671 62.1371 35.2877C62.3528 35.5034 62.7843 35.5034 63.0001 35.5034Z" fill="#FEC77D"/>
<path d="M2.80495 96.9927C-1.07861 100.66 9.27756 104.328 12.2981 104.328C15.1029 104.113 21.144 102.818 20.4967 93.3249C18.3392 95.2666 16.1817 96.1297 13.8084 96.1297H13.5926C10.3563 96.1297 7.76729 94.1879 5.8255 92.2461C5.17824 93.9721 4.31523 95.6981 2.80495 96.9927Z" fill="#FEC77D"/>
<path d="M18.7705 0.76709C18.9863 5.29792 22.0068 9.82874 23.5171 11.7705C23.9486 10.2602 24.3801 8.74997 25.0274 7.2397C25.6746 5.72942 26.5376 3.14038 26.1061 0.76709H18.7705Z" fill="#FEC77D"/>
<path d="M11.0034 46.938C9.06164 48.664 6.25684 50.6058 1.94177 51.2531C2.15753 52.5476 2.58903 53.6264 3.02054 54.7051C8.19863 69.1606 7.33561 77.1435 6.90411 84.6949V84.9106C7.76712 86.6367 10.7877 90.736 13.8082 90.736C16.3973 90.736 18.7706 87.7154 20.2808 84.9106C20.0651 83.1846 19.4178 81.0271 18.339 78.2223C16.8288 74.3387 18.5548 65.277 20.2808 58.3729C20.7123 57.0784 20.9281 55.5681 21.1438 54.2736C20.7123 54.2736 14.024 52.5476 11.0034 46.938Z" fill="#FEC77D"/>
<path d="M0 35.5034C0 39.1712 0.215755 43.0548 0.863016 46.7226C0.863016 46.7226 0.863014 46.7226 1.07877 46.7226C7.55138 45.8596 9.70891 41.3288 9.70891 41.113C10.1404 40.25 11.0034 39.6027 12.0822 39.8185C13.161 40.0342 13.8082 40.6815 14.024 41.7603C14.6712 47.5856 20.9281 49.5274 22.0069 49.7432C23.0856 42.1918 23.0856 34.2089 22.2226 26.6575C22.0069 25.7945 22.0069 24.9315 21.7911 24.0685C21.3596 21.9109 21.5754 19.3219 22.2226 16.5171C21.7911 16.5171 21.3596 16.3013 21.1439 15.8698C20.9281 15.6541 14.4555 8.74997 14.2397 0.76709H4.31507C4.31507 0.76709 4.96233 11.339 2.8048 16.5171C1.72603 18.8904 0.647262 24.2842 0.215754 30.7568C6.25686 28.1678 7.55138 17.5959 7.55138 17.3801C7.76713 16.0856 8.8459 15.2226 10.1404 15.4383C11.4349 15.6541 12.298 16.7329 12.0822 17.8116C12.0822 18.4589 10.3562 32.2671 0.863016 35.2877C0.647262 35.5034 0.215754 35.5034 0 35.5034Z" fill="#FEC77D"/>
</svg>
