<svg width="67" height="121" viewBox="0 0 67 121" fill="none" xmlns="http://www.w3.org/2000/svg">
<path d="M66.9737 108.715C66.5342 104.969 65.9409 101.236 65.585 97.4817C65.1455 92.7535 64.4468 87.9989 64.5874 83.275C64.8247 75.244 65.6465 67.2306 66.1826 59.204C66.6572 52.1336 62.289 44.8043 53.4954 45.3482C48.8811 45.6333 45.1457 43.3525 41.8278 40.4577C40.922 39.5886 40.3393 38.4378 40.1754 37.1944C39.9834 34.794 39.9585 32.3831 40.1007 29.9792C40.1007 29.6108 40.6896 29.2511 40.9796 28.8915C41.3332 29.2227 41.6301 29.6094 41.8585 30.0363C42.0345 30.6232 42.145 31.2278 42.1881 31.839L43.0671 32.4399C43.2151 31.901 43.4291 31.3825 43.7043 30.8959C45.2775 28.7774 46.341 26.4528 46.3674 23.7948C46.4333 19.9657 46.407 16.1366 46.3674 12.3032C46.3379 11.4298 46.2067 10.5628 45.9763 9.71974C45.2459 6.82341 43.5299 4.27038 41.1218 2.49739C38.7137 0.724396 35.7631 -0.158376 32.7749 8.79634e-05C26.8554 0.236939 21.4588 4.72394 20.8348 10.7242C20.3426 15.4831 20.5535 20.3473 20.8348 25.1457C20.9798 27.7774 22.3246 30.0933 24.3241 31.8916L24.8559 31.7907C24.8529 31.2757 24.9179 30.7625 25.0492 30.2643C25.3275 29.7658 25.6622 29.3007 26.0468 28.8783C26.3324 29.3169 26.8466 29.7556 26.8642 30.2249C26.9477 32.4179 27.1015 34.611 26.8115 36.7777C26.6357 38.0936 26.0072 39.6463 25.0536 40.4972C21.6786 43.5236 17.7893 45.607 13.0476 45.3658C5.17686 44.9666 1.05034 51.116 0.953655 56.3311C0.878946 61.8444 1.44145 67.3666 1.7271 72.8799C2.03912 78.9898 3.01033 85.0909 2.19732 91.2315C1.46343 96.8676 0.791055 102.517 0.0571572 108.153C-0.272437 110.671 0.610876 111.732 3.16414 111.754C4.37265 111.754 5.58116 111.693 6.78089 111.754C8.05093 111.837 8.4772 111.188 8.75846 110.079C9.74724 106.166 10.5558 102.184 11.927 98.3896C13.9239 93.0189 14.0386 87.1313 12.2522 81.6873C10.2043 75.1081 8.82437 68.3447 8.6398 61.4058C8.6398 60.8795 9.2067 60.34 9.51872 59.8049C9.83513 60.283 10.3976 60.7567 10.4284 61.2479C10.7272 67.9017 12.0588 74.3624 13.9089 80.7355C14.9988 84.4768 16.0447 88.2884 15.3328 92.1964C14.6981 95.2972 13.8718 98.3558 12.8586 101.355C11.1447 106.807 9.92742 112.32 9.72966 118.066C9.66814 119.952 10.4811 120.947 12.2653 120.961C18.5145 121.009 24.768 120.961 31.0171 120.987C32.1509 120.987 32.5684 120.408 32.5332 119.333C32.4569 118.352 32.4687 117.365 32.5684 116.386C32.6563 115.798 33.1353 115.267 33.4473 114.706C33.7813 115.289 34.2998 115.838 34.4053 116.46C34.5175 117.439 34.5308 118.427 34.4449 119.408C34.4097 120.526 34.9502 120.991 36.0357 120.991C42.2321 120.991 48.4241 120.991 54.6204 120.965C56.453 120.965 57.2836 119.996 57.2352 118.145C57.2045 117 57.099 115.855 56.9979 114.71C56.4882 109.008 54.9325 103.539 53.0428 98.1703C51.2513 93.2656 51.0499 87.923 52.4671 82.8978C53.68 78.4766 54.7347 74.0028 55.6224 69.507C56.1498 66.8358 56.1717 64.0726 56.5321 61.362C56.6024 60.8181 57.1825 60.3444 57.5253 59.8356C57.8021 60.397 58.0922 60.9541 58.3427 61.5243C58.3998 61.6558 58.3119 61.8488 58.3075 62.0111C58.0922 69.178 56.3783 76.073 54.4051 82.9154C53.0867 87.4989 52.9857 92.0034 54.4754 96.6176C55.9256 101.135 57.0419 105.758 58.2592 110.351C58.5272 111.359 59.0194 111.824 60.0917 111.78C61.5156 111.723 62.9438 111.78 64.3677 111.754C66.1826 111.671 67.1846 110.53 66.9737 108.715ZM26.9125 62.9103C26.9125 68.8096 24.0385 72.4808 18.2991 73.8186C17.9256 73.9019 17.4598 73.5773 17.0379 73.4414C17.2312 73.0027 17.3059 72.3448 17.6443 72.1474C18.5223 71.7044 19.4263 71.3148 20.3514 70.9807C23.3617 69.6649 24.9877 67.428 25.0185 64.1121C25.0185 61.7041 24.9613 59.2873 25.0756 56.8925C25.102 56.3048 25.704 55.7477 26.0424 55.1731C26.3324 55.7302 26.8202 56.2653 26.873 56.8443C27.0004 58.1601 26.9125 59.4759 26.9125 60.7918C26.9125 61.4892 26.9169 62.1997 26.9125 62.9103ZM32.5816 28.6985C32.5816 28.3081 33.1485 27.9397 33.4605 27.5625C33.7901 27.9704 34.3394 28.3476 34.4009 28.7994C34.4904 29.7222 34.5051 30.6506 34.4449 31.5758C34.4941 32.5012 34.4794 33.4288 34.4009 34.3522C34.3394 34.7908 33.834 35.1242 33.522 35.5058C33.1924 35.1461 32.6035 34.7996 32.5859 34.4224C32.4881 32.5186 32.4866 30.6112 32.5816 28.7073V28.6985ZM34.3965 46.8044C34.388 46.8571 34.3733 46.9087 34.3526 46.9579C34.3083 47.0651 34.2491 47.1655 34.1768 47.2562C34.0625 47.4009 33.9219 47.5413 33.7857 47.6948C33.6948 47.7844 33.6097 47.8796 33.5308 47.9799C33.3682 47.8001 33.1353 47.6246 32.9419 47.4448C32.7621 47.3106 32.6372 47.1157 32.5903 46.8965C32.4937 44.9403 32.5068 42.949 32.5903 41.0103C32.5903 40.6682 33.1485 40.3524 33.4693 40.0235C33.7989 40.3787 34.3482 40.7033 34.4141 41.0937C34.4493 41.3349 34.4668 41.5805 34.48 41.8218C34.5108 42.5543 34.48 43.2999 34.48 44.0368C34.5183 44.9631 34.4904 45.8909 34.3965 46.8132V46.8044ZM34.4493 108.478C34.4493 108.719 34.4229 108.965 34.3921 109.206C34.3482 109.583 33.856 109.908 33.5659 110.254C33.2276 109.903 32.6079 109.565 32.5903 109.197C32.4937 107.236 32.5025 105.25 32.5903 103.298C32.5903 102.938 33.1309 102.6 33.4165 102.249C33.7593 102.605 34.3306 102.92 34.3921 103.315C34.4274 103.557 34.4494 103.8 34.458 104.043C34.4932 104.776 34.4361 105.521 34.4361 106.263C34.4361 107.004 34.48 107.75 34.4493 108.486V108.478ZM34.4493 95.9466C34.4493 96.1878 34.4185 96.4334 34.3833 96.6747C34.3262 97.0869 33.7901 97.4291 33.4693 97.8063C33.1572 97.4203 32.5903 97.0519 32.5903 96.6571C32.4937 94.746 32.4937 92.8312 32.5903 90.9201C32.5903 90.5297 33.188 90.17 33.5044 89.7928C33.8164 90.1744 34.335 90.5297 34.3833 90.9464C34.4141 91.1745 34.4361 91.385 34.4449 91.635C34.4756 92.328 34.4449 93.0342 34.4449 93.7272C34.4449 94.4202 34.4888 95.2228 34.458 95.9553L34.4493 95.9466ZM34.3877 84.1654C34.3262 84.604 33.8252 84.9593 33.5088 85.3497C33.1792 84.9856 32.5859 84.6347 32.5684 84.2531C32.4717 82.2925 32.4805 80.3056 32.5684 78.3582C32.5684 78.0073 33.1309 77.6783 33.4473 77.3406C33.7769 77.7047 34.3262 78.038 34.3921 78.4415C34.475 79.4204 34.4897 80.4038 34.4361 81.3846C34.4916 82.3142 34.4784 83.2466 34.3965 84.1742L34.3877 84.1654ZM34.4317 68.814C34.4317 69.5552 34.48 70.3009 34.4317 71.0334C34.4317 71.2746 34.4009 71.5202 34.3658 71.7615C34.3086 72.1694 33.7681 72.5115 33.4473 72.8843C33.1397 72.5027 32.5684 72.1299 32.5684 71.7352C32.4717 69.824 32.4717 67.9092 32.5684 65.9981C32.5684 65.6121 33.166 65.2525 33.4868 64.884C33.7989 65.2656 34.3174 65.6165 34.3658 66.0332C34.4598 66.9629 34.4848 67.8982 34.4405 68.8315L34.4317 68.814ZM34.458 58.4847C34.4503 58.7141 34.4268 58.9427 34.3877 59.1689C34.3086 59.6294 33.7681 60.011 33.4385 60.4277C33.1353 60.0374 32.5947 59.6558 32.5596 59.2522C32.4673 57.3399 32.4673 55.4232 32.5596 53.5152C32.5596 53.1424 33.1792 52.8002 33.5088 52.4406C33.812 52.831 34.313 53.1862 34.3877 53.6117C34.4185 53.8354 34.4405 54.0503 34.4493 54.2959C34.48 54.9889 34.4493 55.6951 34.4493 56.3925C34.4493 57.0899 34.502 57.8136 34.4668 58.5022L34.458 58.4847ZM48.3406 73.687C43.3307 71.9676 39.5514 69.7965 39.9908 62.1252C39.9908 61.6865 39.9908 61.2479 39.9908 60.8093C39.9908 59.3312 39.9293 57.8531 40.0304 56.3793C40.0568 55.9407 40.5402 55.5767 40.8126 55.1731C41.1422 55.5767 41.7355 55.9714 41.7531 56.3881C41.8454 58.6777 41.7926 60.9804 41.8058 63.2743C41.8058 67.4718 43.278 69.6474 47.1189 71.2264C47.7487 71.4076 48.3527 71.6685 48.9163 72.0027C49.3557 72.3273 49.5623 72.9326 49.8743 73.415C49.3513 73.5247 48.78 73.8405 48.3406 73.687Z" fill="#E3BBA0"/>
</svg>
