<svg width="81" height="106" viewBox="0 0 81 106" fill="none" xmlns="http://www.w3.org/2000/svg">
<path d="M55.431 98.4333C57.205 98.4333 58.6432 96.9952 58.6432 95.2212C58.6432 93.4472 57.205 92.009 55.431 92.009C53.657 92.009 52.2189 93.4472 52.2189 95.2212C52.2189 96.9952 53.657 98.4333 55.431 98.4333Z" fill="#E3BBA0"/>
<path d="M47.4759 93.1232C47.4759 86.9072 45.3241 81.0279 41.3855 76.3176C38.6561 79.3384 35.4166 81.2131 33.0464 82.2889C36.3607 86.7573 42.3818 96.2439 42.0069 105.797H47.4759V93.1232Z" fill="#E3BBA0"/>
<path d="M45.6999 68.6543C45.2989 69.9938 44.7826 71.2194 44.176 72.3435C48.238 76.8232 50.8546 82.286 51.7948 88.1872C52.8897 87.6183 54.1141 87.266 55.431 87.266C56.7852 87.266 58.0422 87.6379 59.1596 88.2373C58.3835 81.8953 55.5595 76.0235 50.9706 71.4345C49.5124 69.9754 47.685 69.0264 45.6999 68.6543Z" fill="#E3BBA0"/>
<path d="M59.4005 102.074C58.2275 102.756 56.8831 103.176 55.431 103.176C54.2862 103.176 53.2033 102.923 52.2189 102.485V105.796H59.4005V102.074Z" fill="#E3BBA0"/>
<path d="M79.9214 39.523C81.6288 30.2031 80.6566 17.2074 72.807 8.66998C66.5225 1.86384 56.8943 -0.981964 44.1832 0.298729C14.4922 3.2156 9.60693 20.1953 8.87177 27.381L8.84804 27.6418C8.65842 29.2782 9.27489 33.9026 9.67814 36.4163C9.74921 36.7957 9.72547 37.199 9.60693 37.5783C9.48838 37.9104 6.66631 46.0683 1.92335 51.0246C0.595328 52.4001 -0.0450181 53.6096 0.00245772 54.6293C0.0736716 56.1233 1.63879 57.5226 2.8956 58.6371C4.20003 59.8228 5.45684 60.9138 5.21975 62.6212C5.17227 62.9295 5.17227 63.0955 5.19601 63.1666C5.19601 63.0955 5.4331 63.1903 5.59912 63.2615C6.38175 63.6172 7.70977 64.1864 8.25517 65.7516C8.75323 67.1744 8.44493 68.8344 7.16438 71.2771C7.06943 71.4668 6.99836 71.6092 6.97462 71.7277C8.51614 73.3403 10.437 75.8066 10.6741 79.0555C10.8639 81.3085 11.7413 82.0436 12.4053 82.3994C15.7729 84.2491 23.8121 81.3797 28.0571 79.1267C28.1519 79.0793 28.2705 79.0555 28.3654 79.0318C28.4365 79.0082 28.484 78.9607 28.555 78.937C28.6737 78.9132 39.3217 75.9016 41.4559 66.2021C41.4559 66.1547 41.4322 66.1309 41.4322 66.1073C41.4322 64.7793 42.4994 63.7359 43.8036 63.7359C47.7879 63.7359 51.511 65.2772 54.333 68.0756C60.665 74.4075 64.151 82.8262 64.151 91.7904V105.806H78.1665C76.1982 99.64 71.7635 85.6483 68.8229 75.8066C66.3802 67.4827 69.6528 61.886 73.139 55.9573C75.7001 51.5939 78.6171 46.6137 79.9214 39.523ZM65.313 52.6847C61.9455 61.2932 57.6769 63.5461 54.6651 63.9255C54.333 63.9492 54.0011 63.9729 53.6928 63.9729C50.4676 63.9729 47.9064 62.0283 46.5309 60.0599C45.0131 57.9257 44.6337 55.5542 45.5349 53.7519C46.1278 52.5899 47.5506 52.1155 48.7126 52.7084C49.8984 53.2775 50.3727 54.7005 49.7798 55.8863C49.685 56.3842 50.7285 58.4711 52.7679 59.0877C55.5662 59.9177 58.5781 56.8822 60.9021 50.9535C62.5621 46.6612 62.8704 43.5308 61.7322 42.345C60.2617 40.8273 56.0406 41.6336 54.2382 42.2738C52.9814 42.7008 51.6534 42.0367 51.2264 40.8035C50.7758 39.5705 51.4399 38.2187 52.6731 37.7918C53.5268 37.4835 61.1866 34.946 65.1234 39.0486C67.7794 41.7759 67.8268 46.2343 65.313 52.6847Z" fill="#E3BBA0"/>
</svg>
