<svg width="44" height="39" viewBox="0 0 44 39" fill="none" xmlns="http://www.w3.org/2000/svg">
<path d="M27.5169 18.4413L23.246 27.0939C22.7304 28.1472 21.2352 28.1124 20.7626 27.0417L15.873 16.0474L13.295 22.2888H5.20879L20.8915 38.5234C21.5016 39.1589 22.4898 39.1589 23.0999 38.5234L38.7912 22.2888H29.416L27.5169 18.4413ZM40.7075 3.65169L40.5013 3.43407C36.0757 -1.14469 28.8316 -1.14469 24.3975 3.43407L22 5.92366L19.6025 3.44278C15.177 -1.14469 7.92425 -1.14469 3.49873 3.44278L3.29249 3.65169C-0.892421 7.98672 -1.07288 14.8897 2.66518 19.5033H11.4647L14.5497 11.9997C15.0137 10.8767 16.5777 10.8506 17.0761 11.9648L22.0773 23.2202L26.288 14.6982C26.795 13.671 28.2387 13.671 28.7457 14.6982L31.1174 19.5033H41.3348C45.0729 14.8897 44.8924 7.98672 40.7075 3.65169Z" fill="#FEC77D"/>
</svg>
