<svg width="137" height="118" viewBox="0 0 137 118" fill="none" xmlns="http://www.w3.org/2000/svg">
<path d="M14.1104 43.3396C15.0923 45.2199 16.6117 46.7743 18.4801 47.8102C20.152 48.8027 22.0591 49.3437 24.0097 49.3788C25.3664 49.438 26.7145 49.1393 27.9154 48.5135C29.1163 47.8876 30.1266 46.9572 30.8424 45.818C33.0511 42.0534 31.0807 36.8613 26.4568 34.226C25.3513 33.601 24.1486 33.1611 22.8974 32.9241C21.3243 36.4221 18.4642 41.175 14.1104 43.3396Z" fill="#E3BBA0"/>
<path d="M113.511 32.9241C112.258 33.1611 111.054 33.601 109.948 34.226C105.32 36.8613 103.348 42.0691 105.558 45.818C106.275 46.9572 107.286 47.8876 108.488 48.5135C109.69 49.1393 111.039 49.438 112.397 49.3788C114.35 49.3437 116.258 48.8027 117.932 47.8102C119.801 46.7778 121.317 45.222 122.29 43.3396C117.98 41.222 115.117 36.4691 113.511 32.9241Z" fill="#E3BBA0"/>
<path d="M122.504 0C114.888 0 103.448 2.87094 86.6624 10.2926C86.6624 11.8197 77.4318 12.5374 68.2163 12.5374C59.0009 12.5374 49.755 11.8502 49.755 10.3537C32.9692 2.93202 21.5299 0 13.9138 0C-9.52844 0 2.97713 27.2281 6.40436 33.2143C10.974 41.1246 8.71964 42.3768 8.71964 42.3768C9.14231 42.4491 9.57038 42.4849 9.99914 42.4837C18.4682 42.4837 22.3981 28.7399 22.3981 28.7399C20.8943 29.474 19.2558 29.8898 17.5847 29.9616C16.8154 29.9758 16.0519 29.8248 15.3456 29.5187C13.0456 28.4039 1.04265 7.77291 16.092 7.77291C20.6616 7.77291 28.0035 9.75813 38.9402 14.9197C38.9402 14.9197 47.3483 21.9138 45.2006 31.901C45.0634 32.6255 45.0072 33.363 45.033 34.1C43.586 42.2089 39.8541 70.8571 52.8319 87.0443C52.8319 87.0443 60.4479 96.4207 60.4479 117.586H76.0152C76.0152 96.4207 83.6312 87.0443 83.6312 87.0443C96.7461 70.7044 92.7705 41.6286 91.4453 33.8557C91.4472 33.1982 91.3757 32.5425 91.2321 31.901C89.0843 21.9138 97.4772 14.9197 97.4772 14.9197C108.444 9.75813 115.756 7.77291 120.325 7.77291C135.344 7.77291 123.372 28.4039 121.057 29.4118C120.35 29.7179 119.587 29.8689 118.817 29.8547C117.141 29.785 115.497 29.3691 113.989 28.633C113.989 28.633 117.934 42.3768 126.388 42.3768C126.817 42.378 127.245 42.3422 127.667 42.2699C127.667 42.2699 125.443 41.0483 129.983 33.1074C133.379 27.2281 145.961 0 122.504 0ZM68.7799 89.5946C68.6062 89.6951 68.4092 89.748 68.2087 89.748C68.0082 89.748 67.8112 89.6951 67.6375 89.5946C52.4054 80.8749 47.8357 64.0616 54.4922 41.0025C58.1327 28.297 54.0657 23.6547 54.02 23.6089C53.8917 23.4661 53.7997 23.2943 53.7519 23.1081C53.7042 22.922 53.7021 22.727 53.7458 22.5399C53.7948 22.3541 53.8884 22.1832 54.0185 22.0421C54.1487 21.901 54.3113 21.794 54.4922 21.7305C63.3857 18.7256 73.0165 18.7256 81.91 21.7305C82.0907 21.7939 82.2529 21.9013 82.3821 22.043C82.5112 22.1846 82.6033 22.3562 82.6501 22.5423C82.6969 22.7285 82.6969 22.9233 82.6502 23.1094C82.6034 23.2956 82.5113 23.4672 82.3822 23.6089C82.306 23.6852 78.2848 28.3429 81.91 41.0025C88.536 64.1379 83.9968 80.936 68.7799 89.5946Z" fill="#E3BBA0"/>
<path d="M79.5441 24.0152C72.1722 21.7837 64.3176 21.7837 56.9457 24.0152C58.1657 26.3826 59.9212 31.8863 56.9457 41.9438C50.8015 63.6269 54.5803 78.781 68.1929 87.014C81.8203 78.781 85.5991 63.6269 79.4548 41.9438C76.6431 31.8863 78.3391 26.3826 79.5441 24.0152Z" fill="#E3BBA0"/>
</svg>
