<svg width="90" height="110" viewBox="0 0 90 110" fill="none" xmlns="http://www.w3.org/2000/svg">
<path fill-rule="evenodd" clip-rule="evenodd" d="M29.5314 83.3519L30.663 82.5204H41.2835L43.5467 84.82V96.1801L41.8482 97.9042H37.6379L29.5314 89.7343V83.3519ZM30.3251 69.3202H41.0698L43.6121 71.9261V78.0328L41.2988 79.4025H31.0969L27.5582 75.1928V72.6197L30.3251 69.3202ZM25.3212 56.9733L28.1076 55.6518H41.2486L43.6099 58.0958V65.1608L41.0262 66.7056H29.3831L25.3212 62.5002V56.9733ZM30.3163 109.4H59.4676C64.5173 104.335 69.0088 98.7794 74.052 93.7186C75.2948 87.7869 76.047 82.3257 74.5098 76.3524C76.7839 71.2457 77.1066 65.4715 76.5267 59.9731L89.0702 41.7799C91.0216 20.5344 90.7033 8.51788 65.3611 5.71506L55.4972 0H34.2868L24.425 5.71506C-0.932436 8.52007 -1.22242 20.5366 0.713727 41.7799L13.2595 59.9753C12.6795 65.4825 13 71.2413 15.2741 76.3568C13.737 82.341 14.4935 87.7804 15.7298 93.7208C20.7795 98.7751 25.2688 104.335 30.3163 109.4ZM48.5026 82.5226H59.1231L60.2547 83.354V89.7343L52.1482 97.9042H47.9379L46.2394 96.1801V84.82L48.5026 82.5226ZM48.7163 69.3202H59.4611L62.2279 72.6197V75.195L58.6892 79.4047H48.4874L46.174 78.035V71.9283L48.7163 69.3202ZM48.5375 55.6518H61.6763L64.465 56.9733V62.498L60.403 66.7034H48.7599L46.1762 65.1586V58.0936L48.5375 55.6518Z" fill="#FEC77D"/>
</svg>
